<svg id="visual" viewBox="0 0 900 600" width="900" height="600" xmlns="http://www.w3.org/2000/svg" xmlns:xlink="http://www.w3.org/1999/xlink" version="1.1"><rect x="0" y="0" width="900" height="600" fill="#ffffff"></rect><path d="M0 386L21.5 390.3C43 394.7 86 403.3 128.8 410.5C171.7 417.7 214.3 423.3 257.2 414.7C300 406 343 383 385.8 379C428.7 375 471.3 390 514.2 393C557 396 600 387 642.8 386.5C685.7 386 728.3 394 771.2 391C814 388 857 374 878.5 367L900 360L900 601L878.5 601C857 601 814 601 771.2 601C728.3 601 685.7 601 642.8 601C600 601 557 601 514.2 601C471.3 601 428.7 601 385.8 601C343 601 300 601 257.2 601C214.3 601 171.7 601 128.8 601C86 601 43 601 21.5 601L0 601Z" fill="#0b3c78"></path><path d="M0 441L21.5 440.8C43 440.7 86 440.3 128.8 443.7C171.7 447 214.3 454 257.2 458.3C300 462.7 343 464.3 385.8 465.3C428.7 466.3 471.3 466.7 514.2 454.7C557 442.7 600 418.3 642.8 413.7C685.7 409 728.3 424 771.2 430.3C814 436.7 857 434.3 878.5 433.2L900 432L900 601L878.5 601C857 601 814 601 771.2 601C728.3 601 685.7 601 642.8 601C600 601 557 601 514.2 601C471.3 601 428.7 601 385.8 601C343 601 300 601 257.2 601C214.3 601 171.7 601 128.8 601C86 601 43 601 21.5 601L0 601Z" fill="#00578b"></path><path d="M0 502L21.5 500.8C43 499.7 86 497.3 128.8 488.2C171.7 479 214.3 463 257.2 462.8C300 462.7 343 478.3 385.8 479.5C428.7 480.7 471.3 467.3 514.2 463.7C557 460 600 466 642.8 473.5C685.7 481 728.3 490 771.2 495.7C814 501.3 857 503.7 878.5 504.8L900 506L900 601L878.5 601C857 601 814 601 771.2 601C728.3 601 685.7 601 642.8 601C600 601 557 601 514.2 601C471.3 601 428.7 601 385.8 601C343 601 300 601 257.2 601C214.3 601 171.7 601 128.8 601C86 601 43 601 21.5 601L0 601Z" fill="#007199"></path><path d="M0 498L21.5 503.2C43 508.3 86 518.7 128.8 517.2C171.7 515.7 214.3 502.3 257.2 495.2C300 488 343 487 385.8 488.3C428.7 489.7 471.3 493.3 514.2 499.8C557 506.3 600 515.7 642.8 513.2C685.7 510.7 728.3 496.3 771.2 495.3C814 494.3 857 506.7 878.5 512.8L900 519L900 601L878.5 601C857 601 814 601 771.2 601C728.3 601 685.7 601 642.8 601C600 601 557 601 514.2 601C471.3 601 428.7 601 385.8 601C343 601 300 601 257.2 601C214.3 601 171.7 601 128.8 601C86 601 43 601 21.5 601L0 601Z" fill="#008aa2"></path><path d="M0 537L21.5 541.8C43 546.7 86 556.3 128.8 559.5C171.7 562.7 214.3 559.3 257.2 559.7C300 560 343 564 385.8 561.7C428.7 559.3 471.3 550.7 514.2 551.3C557 552 600 562 642.8 563.7C685.7 565.3 728.3 558.7 771.2 555.5C814 552.3 857 552.7 878.5 552.8L900 553L900 601L878.5 601C857 601 814 601 771.2 601C728.3 601 685.7 601 642.8 601C600 601 557 601 514.2 601C471.3 601 428.7 601 385.8 601C343 601 300 601 257.2 601C214.3 601 171.7 601 128.8 601C86 601 43 601 21.5 601L0 601Z" fill="#35a2a4"></path></svg>